HIERARCHY
ROOT Hips
{
	OFFSET 0.000000 0.000000 0.000000
	CHANNELS 6 Xposition Yposition Zposition Xrotation Yrotation Zrotation
	JOINT Chest
	{
		OFFSET 0.000000 0.009282 11.569106
		CHANNELS 3 Xrotation Yrotation Zrotation
		JOINT Chest2
		{
			OFFSET 0.000000 -0.016863 9.269641
			CHANNELS 3 Xrotation Yrotation Zrotation
			JOINT Chest3
			{
				OFFSET 0.000000 0.000000 8.374491
				CHANNELS 3 Xrotation Yrotation Zrotation
				JOINT Chest4
				{
					OFFSET 0.000000 0.000000 8.374493
					CHANNELS 3 Xrotation Yrotation Zrotation
					JOINT Neck
					{
						OFFSET 0.000000 -0.000001 12.152554
						CHANNELS 3 Xrotation Yrotation Zrotation
						JOINT Head
						{
							OFFSET 0.000000 -0.040100 7.802319
							CHANNELS 3 Xrotation Yrotation Zrotation
							End Site
							{
								OFFSET 0.000000 -0.020946 14.853096
							}
						}
					}
					JOINT RightCollar
					{
						OFFSET -2.894404 0.000000 6.791374
						CHANNELS 3 Xrotation Yrotation Zrotation
						JOINT RightShoulder
						{
							OFFSET -13.574684 0.000000 0.000000
							CHANNELS 3 Xrotation Yrotation Zrotation
							JOINT RightElbow
							{
								OFFSET -23.923903 0.000000 0.000000
								CHANNELS 3 Xrotation Yrotation Zrotation
								JOINT RightWrist
								{
									OFFSET -19.846718 -0.012765 0.000000
									CHANNELS 3 Xrotation Yrotation Zrotation
									End Site
									{
										OFFSET -14.973145 0.000000 0.000000
									}
								}
							}
						}
					}
					JOINT LeftCollar
					{
						OFFSET 2.894404 0.000000 6.791374
						CHANNELS 3 Xrotation Yrotation Zrotation
						JOINT LeftShoulder
						{
							OFFSET 13.574684 0.000000 0.000000
							CHANNELS 3 Xrotation Yrotation Zrotation
							JOINT LeftElbow
							{
								OFFSET 23.923903 0.000000 0.000000
								CHANNELS 3 Xrotation Yrotation Zrotation
								JOINT LeftWrist
								{
									OFFSET 19.846718 -0.012765 0.000000
									CHANNELS 3 Xrotation Yrotation Zrotation
									End Site
									{
										OFFSET 14.973145 0.000000 0.000000
									}
								}
							}
						}
					}
				}
			}
		}
	}
	JOINT RightHip
	{
		OFFSET -9.469263 -0.004642 0.045487
		CHANNELS 3 Xrotation Yrotation Zrotation
		JOINT RightKnee
		{
			OFFSET 0.000000 -0.002666 -40.478676
			CHANNELS 3 Xrotation Yrotation Zrotation
			JOINT RightAnkle
			{
				OFFSET 0.000000 -0.049110 -35.224068
				CHANNELS 3 Xrotation Yrotation Zrotation
				JOINT RightToe
				{
					OFFSET 0.000000 -12.539530 -6.151390
					CHANNELS 3 Xrotation Yrotation Zrotation
					End Site
					{
						OFFSET 0.000000 -5.044995 -1.291870
					}
				}
			}
		}
	}
	JOINT LeftHip
	{
		OFFSET 9.469263 -0.004642 0.045487
		CHANNELS 3 Xrotation Yrotation Zrotation
		JOINT LeftKnee
		{
			OFFSET 0.000000 -0.002666 -40.478676
			CHANNELS 3 Xrotation Yrotation Zrotation
			JOINT LeftAnkle
			{
				OFFSET 0.000000 -0.049110 -35.224068
				CHANNELS 3 Xrotation Yrotation Zrotation
				JOINT LeftToe
				{
					OFFSET 0.000000 -12.539530 -6.151390
					CHANNELS 3 Xrotation Yrotation Zrotation
					End Site
					{
						OFFSET 0.000000 -5.044995 -1.291870
					}
				}
			}
		}
	}
}
MOTION
Frames: 17
Frame Time: 0.016667
-6.755019 -2.643836 83.030846 2.415237 5.560975 -111.819861 2.212631 -1.276405 0.466965 0.977855 -0.564154 0.191819 0.977854 -0.564154 0.191817 0.733208 -0.423424 0.142965 20.072674 -0.108424 -1.874588 1.109534 0.374376 -3.461067 -5.967545 -10.326423 -3.500841 7.275703 -73.099567 5.993263 24.994550 -0.117564 2.730181 -8.452071 9.125902 10.772668 -0.129852 9.816052 -3.510614 16.254708 76.163439 -17.124346 17.888330 2.035878 -4.599530 19.724830 -6.785835 -6.137388 6.740193 -0.317283 4.872734 3.094386 0.028461 2.282496 -4.453689 -0.618392 -2.689337 0.063880 0.007231 0.081301 7.382057 0.398752 2.810688 2.528137 0.044419 3.778298 -4.121782 -0.875262 1.453870 0.037518 0.135937 -0.079851 
-6.727773 -2.643739 83.030861 2.413309 5.555586 -111.948009 2.191923 -1.279263 0.471634 0.969623 -0.564588 0.194244 0.969624 -0.564588 0.194245 0.727032 -0.423750 0.144784 20.018646 -0.073896 -1.872329 1.009977 0.438216 -3.446321 -5.967007 -10.324692 -3.472805 7.027679 -73.108275 5.659330 24.749346 -0.205202 2.757263 -8.534866 9.418778 10.841597 -0.127411 9.807288 -3.472329 16.218627 76.168931 -17.071590 17.806633 2.035698 -4.580440 19.777760 -6.775916 -6.149064 6.683826 -0.311778 4.938136 3.131438 0.030696 2.334316 -4.455555 -0.629252 -2.688135 0.069741 0.010658 0.082961 7.362862 0.407173 2.780255 2.545882 0.053928 3.850115 -4.121082 -0.901703 1.515350 0.033893 0.137064 -0.081235 
-6.698647 -2.644418 83.030663 2.410038 5.550371 -112.076581 2.160635 -1.280890 0.468700 0.956504 -0.564680 0.193920 0.956503 -0.564679 0.193924 0.717194 -0.423814 0.144563 19.990210 -0.040527 -1.867471 0.957844 0.498471 -3.427173 -5.971796 -10.330000 -3.430648 6.763197 -73.108692 5.280302 24.497769 -0.295062 2.774539 -8.602983 9.726571 10.917843 -0.078655 9.775705 -3.453061 16.303412 76.217145 -17.139082 17.700070 1.985779 -4.568550 19.825944 -6.740084 -6.120455 6.624900 -0.305915 4.986229 3.170546 0.034736 2.389533 -4.458765 -0.640962 -2.671493 0.076305 0.012990 0.084008 7.339986 0.422522 2.741227 2.567226 0.052674 3.940924 -4.120631 -0.922526 1.561922 0.030797 0.138573 -0.082703 
-6.670772 -2.645467 83.030373 2.409864 5.549523 -112.205269 2.133085 -1.279920 0.464149 0.944268 -0.564389 0.193398 0.944269 -0.564389 0.193395 0.708017 -0.423591 0.144175 19.978266 -0.014451 -1.864773 0.936219 0.545630 -3.414215 -6.017709 -10.336839 -3.402697 6.529915 -73.098986 4.896848 24.251044 -0.410397 2.779363 -8.666264 10.058420 10.991908 -0.069608 9.754432 -3.451104 16.341081 76.268768 -17.089010 17.566973 1.897749 -4.584201 19.937109 -6.622445 -6.048690 6.575946 -0.302245 5.021127 3.201534 0.043625 2.447787 -4.455595 -0.654726 -2.642979 0.079767 0.013206 0.085364 7.322591 0.438551 2.701387 2.589717 0.051179 4.025754 -4.121411 -0.948441 1.623750 0.028269 0.142490 -0.084907 
-6.645581 -2.648542 83.030006 2.410310 5.545177 -112.335582 2.109361 -1.278933 0.453736 0.933322 -0.564956 0.190446 0.933322 -0.564956 0.190440 0.699810 -0.424010 0.141972 19.980276 0.008353 -1.865438 0.940475 0.587466 -3.408455 -6.063741 -10.335375 -3.374055 6.231710 -73.080381 4.454561 23.993563 -0.550667 2.795486 -8.758138 10.379249 11.041801 -0.100181 9.741557 -3.427346 16.374709 76.311634 -17.009818 17.381144 1.839213 -4.601385 20.095854 -6.503784 -5.973478 6.528593 -0.298604 5.050959 3.224451 0.052574 2.497308 -4.447278 -0.671162 -2.584394 0.081787 0.013263 0.087250 7.303581 0.454079 2.660880 2.612384 0.051555 4.109415 -4.124020 -0.979734 1.688013 0.026741 0.147879 -0.088089 
-6.621802 -2.652294 83.029907 2.408733 5.535000 -112.467896 2.072775 -1.279905 0.439733 0.916737 -0.566344 0.185622 0.916737 -0.566344 0.185624 0.687374 -0.425037 0.138362 20.004876 0.028461 -1.869029 0.986694 0.624698 -3.408936 -6.085902 -10.329386 -3.342871 5.843780 -73.066447 3.907959 23.646774 -0.710868 2.829889 -8.842180 10.671217 11.039234 -0.073111 9.728918 -3.397958 16.284400 76.339658 -16.885671 17.207355 1.843355 -4.580714 20.220517 -6.460570 -5.935076 6.474788 -0.293715 5.103438 3.248582 0.060038 2.542829 -4.437433 -0.686382 -2.561763 0.081425 0.012145 0.090356 7.284951 0.472226 2.617671 2.622376 0.048951 4.193622 -4.118432 -1.012846 1.752950 0.024497 0.154092 -0.091359 
-6.599700 -2.655302 83.030502 2.402782 5.517556 -112.601372 2.030777 -1.276184 0.430868 0.897522 -0.565590 0.182260 0.897522 -0.565589 0.182259 0.672967 -0.424460 0.135865 20.039271 0.037748 -1.878306 1.050971 0.643621 -3.423172 -6.079649 -10.328625 -3.321255 5.285635 -73.067677 3.194764 23.153153 -0.877651 2.897418 -8.943815 10.907121 11.020327 -0.043411 9.728474 -3.374976 16.120845 76.354657 -16.704040 17.103215 1.857815 -4.530078 20.252634 -6.459215 -5.966848 6.416082 -0.287627 5.180649 3.268048 0.063376 2.597546 -4.426031 -0.697010 -2.543138 0.080968 0.011472 0.094194 7.263741 0.483833 2.579401 2.622774 0.060214 4.268725 -4.103576 -1.051364 1.813082 0.018985 0.158670 -0.094587 
-6.577979 -2.656101 83.031883 2.394321 5.498353 -112.731801 1.983750 -1.271216 0.421378 0.876391 -0.564075 0.177787 0.876393 -0.564075 0.177793 0.657125 -0.423313 0.132534 20.077686 0.042965 -1.893258 1.122731 0.656723 -3.449060 -6.069931 -10.322391 -3.319352 4.551203 -73.093420 2.291390 22.516699 -1.051056 2.975931 -9.101658 11.129021 11.036432 -0.030551 9.753466 -3.370946 15.919190 76.383037 -16.454687 17.052392 1.842612 -4.466127 20.286415 -6.520137 -6.034120 6.354279 -0.276320 5.275019 3.289550 0.057339 2.646707 -4.416472 -0.704259 -2.555658 0.080221 0.012283 0.096440 7.242376 0.491439 2.541813 2.618791 0.082868 4.345267 -4.082627 -1.095476 1.882328 0.011760 0.162248 -0.096080 
-6.558222 -2.660995 83.034279 2.385618 5.482767 -112.854259 1.938193 -1.263610 0.404279 0.856446 -0.562586 0.169443 0.856448 -0.562586 0.169440 0.642174 -0.422178 0.126298 20.111089 0.048489 -1.910853 1.185290 0.671312 -3.479666 -6.063153 -10.322603 -3.310214 3.581891 -73.124367 1.147519 21.774585 -1.227107 3.048701 -9.337915 11.381465 11.121773 -0.014179 9.784670 -3.362207 15.739876 76.398664 -16.225891 17.028584 1.828042 -4.408030 20.344603 -6.584169 -6.099244 6.293692 -0.259160 5.367855 3.317221 0.044663 2.676511 -4.409732 -0.711603 -2.565491 0.077716 0.012823 0.098060 7.219224 0.497511 2.506270 2.621404 0.110147 4.408557 -4.056419 -1.145164 1.932023 0.001030 0.167467 -0.099373 
-6.541044 -2.667006 83.037430 2.379053 5.470798 -112.969949 1.901021 -1.254200 0.379143 0.839793 -0.561006 0.157982 0.839793 -0.561006 0.157981 0.629695 -0.420972 0.117711 20.134733 0.053808 -1.931200 1.229761 0.686596 -3.515347 -6.058368 -10.328428 -3.296824 2.448368 -73.150923 -0.163186 20.985983 -1.409533 3.126457 -9.691411 11.646950 11.258255 -0.015740 9.816718 -3.332088 15.582146 76.414886 -15.996586 17.054444 1.783889 -4.365652 20.394477 -6.595765 -6.142322 6.245993 -0.246007 5.438761 3.331860 0.042009 2.700461 -4.397038 -0.724409 -2.550494 0.074141 0.011092 0.101521 7.194584 0.502158 2.473804 2.637074 0.142798 4.464064 -4.029814 -1.200925 1.977053 -0.012956 0.172840 -0.103111 
-6.528812 -2.671503 83.041702 2.374625 5.460586 -113.078030 1.874179 -1.243203 0.346476 0.827014 -0.559900 0.143568 0.827013 -0.559901 0.143574 0.620123 -0.420121 0.106920 20.143952 0.058734 -1.953877 1.247507 0.702258 -3.555356 -6.067019 -10.338903 -3.288121 1.301000 -73.163347 -1.504122 20.133880 -1.591969 3.229574 -10.098909 11.907916 11.397076 -0.009009 9.838879 -3.297536 15.380698 76.443655 -15.740181 17.096454 1.729342 -4.327427 20.393456 -6.579182 -6.142842 6.213233 -0.241437 5.496577 3.331505 0.052193 2.706898 -4.380457 -0.742426 -2.496993 0.070360 0.007692 0.107043 7.173530 0.501844 2.454087 2.653922 0.179549 4.489951 -3.994003 -1.265712 2.038298 -0.030880 0.182936 -0.107192 
-6.521656 -2.675049 83.047478 2.366670 5.443120 -113.183297 1.854121 -1.230190 0.314225 0.817100 -0.558557 0.129114 0.817100 -0.558557 0.129112 0.612702 -0.419091 0.096086 20.137332 0.060789 -1.978919 1.235849 0.713796 -3.600507 -6.106585 -10.351453 -3.305993 0.258110 -73.151353 -2.773625 19.129973 -1.808168 3.370535 -10.500488 12.114076 11.479583 -0.014574 9.853570 -3.270757 15.151994 76.473093 -15.463596 17.085853 1.718809 -4.292707 20.427781 -6.614881 -6.156860 6.179704 -0.232247 5.550093 3.323446 0.058460 2.721587 -4.363287 -0.760945 -2.480832 0.065903 0.005465 0.112765 7.147296 0.497768 2.437728 2.667996 0.214583 4.501028 -3.947705 -1.330250 2.054418 -0.050865 0.195379 -0.111540 
-6.516036 -2.676916 83.055054 2.360649 5.423482 -113.287451 1.838110 -1.220537 0.280539 0.809920 -0.558074 0.113965 0.809921 -0.558074 0.113961 0.607331 -0.418708 0.084735 20.124621 0.065234 -2.007313 1.213014 0.730914 -3.651038 -6.130680 -10.365341 -3.317352 -0.712945 -73.083762 -3.982789 17.895978 -2.113425 3.554386 -10.920162 12.193873 11.461816 -0.027729 9.874986 -3.251405 14.917999 76.497299 -15.180649 17.048074 1.730875 -4.253857 20.453601 -6.713412 -6.212984 6.149508 -0.224814 5.615425 3.308331 0.058376 2.752881 -4.342085 -0.774819 -2.470925 0.059953 0.005002 0.116875 7.123509 0.503232 2.393086 2.674884 0.234061 4.518418 -3.890258 -1.391300 2.133179 -0.070609 0.205402 -0.113530 
-6.510250 -2.682161 83.063866 2.354128 5.397950 -113.391707 1.822680 -1.209873 0.249991 0.804114 -0.556564 0.100366 0.804113 -0.556563 0.100367 0.602989 -0.417555 0.074544 20.105738 0.069288 -2.038563 1.178802 0.748354 -3.706887 -6.146317 -10.394994 -3.326938 -1.652878 -72.952608 -5.179053 16.477254 -2.509948 3.784709 -11.383830 12.147208 11.400700 -0.028373 9.890805 -3.243326 14.730879 76.506308 -14.948226 17.025046 1.751713 -4.229775 20.460115 -6.870398 -6.324330 6.107821 -0.213825 5.690463 3.301965 0.053163 2.784288 -4.324077 -0.790216 -2.483025 0.053439 0.005073 0.120345 7.094811 0.511470 2.312557 2.674956 0.237197 4.556396 -3.825507 -1.443786 2.192787 -0.085749 0.216425 -0.116719 
-6.502516 -2.686892 83.072502 2.346548 5.366291 -113.493019 1.810395 -1.201950 0.219454 0.799526 -0.554265 0.087068 0.799526 -0.554264 0.087068 0.599561 -0.415814 0.064572 20.080751 0.074545 -2.073843 1.133408 0.769420 -3.769724 -6.160986 -10.421613 -3.336933 -2.625149 -72.798519 -6.444451 14.997265 -2.942155 4.062486 -11.830519 12.046095 11.350610 -0.059798 9.922772 -3.227556 14.593642 76.474520 -14.733941 17.064775 1.760874 -4.225918 20.445563 -7.038415 -6.485017 6.056974 -0.207149 5.761672 3.301928 0.048488 2.801525 -4.311313 -0.804822 -2.468825 0.049358 0.004742 0.122920 7.063812 0.528096 2.215188 2.666373 0.229649 4.611696 -3.761950 -1.494933 2.266399 -0.092924 0.225084 -0.117778 
-6.495100 -2.689492 83.080872 2.337603 5.326299 -113.590465 1.799245 -1.194648 0.189541 0.794801 -0.551039 0.074686 0.794801 -0.551039 0.074686 0.596029 -0.413378 0.055298 20.052892 0.076164 -2.115231 1.082757 0.785801 -3.844805 -6.201323 -10.435974 -3.359368 -3.626821 -72.629028 -7.775774 13.520228 -3.385103 4.365952 -12.321046 11.914474 11.295765 -0.094394 9.956053 -3.207521 14.342837 76.420849 -14.400242 17.188215 1.778348 -4.245360 20.402265 -7.209992 -6.670656 6.001478 -0.204543 5.804542 3.297562 0.046705 2.814627 -4.299721 -0.820367 -2.426470 0.047464 0.003529 0.125577 7.023078 0.537305 2.143410 2.663530 0.221675 4.667029 -3.707916 -1.536275 2.314732 -0.094804 0.228941 -0.118255 
-6.486580 -2.686810 83.089272 2.323359 5.276053 -113.678493 1.784135 -1.183763 0.157391 0.788427 -0.545366 0.062009 0.788428 -0.545366 0.062007 0.591262 -0.409105 0.045805 20.023891 0.074788 -2.160562 1.030025 0.797983 -3.928000 -6.250439 -10.439427 -3.390175 -4.569374 -72.426950 -9.061053 11.993985 -3.872394 4.668219 -12.848422 11.741990 11.155206 -0.124680 9.978789 -3.178745 13.993323 76.367833 -13.973526 17.354572 1.813002 -4.276819 20.343695 -7.396834 -6.819339 5.936633 -0.206696 5.817363 3.293058 0.047043 2.835699 -4.289861 -0.832840 -2.374527 0.045738 0.002243 0.126682 6.969306 0.542797 2.093224 2.666565 0.215484 4.715331 -3.663830 -1.569989 2.345975 -0.093024 0.227141 -0.116977 
